 <svg  version="1.0" xmlns="http://www.w3.org/2000/svg"  width="300.000000pt" height="201.000000pt" viewBox="0 0 300.000000 201.000000"  preserveAspectRatio="xMidYMid meet">  <g transform="translate(0.000000,201.000000) scale(0.050000,-0.050000)" fill="#d4111b" stroke="none"> <path d="M1685 2990 c-348 -76 -652 -381 -727 -729 l-21 -101 -108 0 c-129 0 -185 -54 -151 -145 23 -60 58 -75 171 -75 l85 0 35 -130 c273 -1007 1736 -909 1871 126 24 188 126 258 300 206 95 -28 112 -55 140 -234 50 -309 244 -569 536 -713 l171 -85 231 0 c492 1 843 287 951 775 11 50 20 55 103 55 126 0 168 27 168 107 0 90 -31 113 -152 113 l-104 0 -24 105 c-170 727 -1082 992 -1607 467 -101 -101 -233 -316 -233 -380 0 -40 -16 -40 -107 -2 -91 38 -205 38 -314 0 -47 -17 -87 -28 -89 -25 -1 3 -19 48 -38 100 -152 410 -638 662 -1087 565z m314 -211 c915 -149 766 -1521 -158 -1454 -848 60 -914 1289 -77 1454 47 9 91 18 96 19 6 1 68 -8 139 -19z m2471 -33 c407 -140 604 -624 413 -1014 -277 -562 -1094 -537 -1335 40 -243 580 325 1180 922 974z"/> </g> </svg> 