<svg xmlns="http://www.w3.org/2000/svg" width="400" height="268" version="1.0" viewBox="0 0 300 201"><g fill="#31aeb4"><path d="M84.4 51.5C67 55.3 51.6 70.6 47.9 87.9L46.8 93h-5.2c-5.9 0-7.6 1.2-7.6 5.1 0 4.1 2.4 5.9 8 5.9h4.8l1.1 4.7c4.3 17.2 16.7 30.4 33.4 35.5 5.6 1.7 8.6 2 16.2 1.6 8.1-.4 10.4-1 16.9-4.1 8.4-4 16-10.5 20.6-17.6 3.6-5.8 7-15.2 7-19.8 0-9 8-13.8 16.5-9.7 3.9 1.8 4.1 2.3 5.5 11.2 2.5 15.3 12.3 28.3 26.8 35.5l8.5 4.2h11.6c9.8 0 12.5-.4 17.4-2.4 15.3-6.1 26.4-19.5 30.1-36.4.6-2.5 1-2.7 5.5-2.7 5.4 0 8.1-2 8.1-6.1 0-3.7-1.8-4.9-7.6-4.9h-5.2l-1.2-5.3c-4.4-18.8-20.9-34-39.9-36.7-19.7-2.8-39.6 7.3-48.8 24.7-1.8 3.3-3.3 6.8-3.3 7.7 0 1.9.2 1.9-5 .1-5.4-1.9-10.6-1.9-16 0-5.2 1.8-5 1.8-5-.1 0-3.2-6.3-13.4-11.6-18.7-6.6-6.6-15.2-11.3-24.1-13.2-8.2-1.8-11.9-1.8-19.9 0zm132.1 1.9c11.4 1.3 15.9 3.3 24.8 10.9 6.6 5.6 13.1 16.4 14.2 23.2.8 5.6 3.4 7.9 9 8 5.1.1 5.6.4 4.9 3.2-.5 1.6-1.6 2.2-5.5 2.5-2.8.3-5.5 1-6 1.5-.6.6-1.7 3.7-2.5 6.9-1.9 7.1-5.3 13.4-10.8 19.4-3.8 4.2-11.3 9.8-13.9 10.3-.7.1-1.5.5-1.8 1-1.2 1.6-16.5 3.8-22.5 3.2-12.8-1.3-25.1-8.8-32.6-19.7-4.2-6.3-7.8-15.8-7.8-20.8 0-7.7-6-12.6-14.4-11.7-7.5.7-10.6 3.8-11.6 11.4-1.2 8.4-1.5 9.7-5.2 16.6-7.7 14.6-21.5 23.4-37.8 24.2-11.4.6-19.4-1.8-29.5-8.6-7.4-5-14.4-15.5-17-25.5-1.8-6.9-2.9-8-8.7-8.2-5-.2-6.7-1.5-5.2-4 .7-1.1 2.5-1.7 5.1-1.8 5.7-.1 7.1-1.3 8.8-7.7 2.2-8.4 5-13.8 10.3-19.5 10.5-11.3 19.9-15.3 35.5-14.8 8.4.2 11.2.7 15.7 2.8 11.2 5.1 19.2 13.2 25 25.1 2.2 4.5 2.8 5.1 5 4.8 3.1-.5 17.5-.4 21.5 0 2.8.4 3.2 0 6-5.7 3.9-8 10.2-16.5 12.6-17.1 1-.3 1.9-.9 1.9-1.3 0-2.5 22.6-10.7 26-9.4.3.1 3.2.5 6.5.8z"/><path d="M84.5 60.4C74.1 63.7 65.9 70.1 60.8 79c-3.9 6.7-5.5 13.5-5.1 21.5.8 14.5 9.1 26.5 23.1 33.5 5.5 2.8 7.3 3.1 14.7 3.1 9.8.1 16.2-1.7 22.8-6.4 16.9-12.1 22-32.5 12.6-50.9-7.8-15.3-28.6-24.4-44.4-19.4zm15.5 1.7c12.2 2 21.9 9 27.6 20.1 2.3 4.3 2.8 7 3.2 14.3.6 12.6-1.8 18.7-10.7 27.6-5.7 5.7-7.6 6.8-13.9 8.8-18 5.8-36.1-1.9-44.5-18.8-2.9-6-3.2-7.4-3.2-16.1 0-8.4.3-10.2 2.8-15.2 5.3-10.7 15.3-18.4 26.9-20.7 2.4-.5 4.5-.9 4.8-1 .3 0 3.4.4 7 1zM206 59.3c-.3.3-1.9.7-3.6 1-10.5 1.6-23.1 12.6-27.3 23.8-3.5 9-3.8 16.2-1.3 24.6 3.6 11.6 10.3 19.7 21 25.2 12.7 6.4 33 3.2 43-6.7 4.7-4.8 9.8-13 11.3-18.3 2.7-9.7.6-23.1-5-31.8-4.1-6.3-7.4-9.3-15.5-13.7-5.8-3.2-8.1-3.8-14.5-4.2-4.2-.2-7.8-.2-8.1.1zm17.5 4.4c20.4 7 30.2 31.2 20.6 50.7-15.9 32.3-63.3 24.7-69.1-11.1-4.3-26.4 22.7-48.5 48.5-39.6z"/></g></svg>